<svg fill="#ffffff" height="200px" width="200px" version="1.1" id="SVGRepoEditor" xmlns="http://www.w3.org/2000/svg" xmlns:xlink="http://www.w3.org/1999/xlink" viewBox="0 0 512 512" xml:space="preserve" stroke="#ffffff" stroke-width="0"><g id="SVGRepo_bgCarrier" stroke-width="0"></g> <path d="M436.662,44.087h-121.18c-17.681-58.765-101.272-58.799-118.964,0H75.337c-9.867,0-17.866,7.999-17.866,17.866v70.466 c0,9.867,7.999,17.866,17.866,17.866h9.246v343.851c0,9.867,7.999,17.866,17.866,17.866h307.103 c9.867,0,17.866-7.999,17.866-17.866V150.284h9.246c9.867,0,17.866-7.999,17.866-17.866V61.952 C454.528,52.086,446.53,44.087,436.662,44.087z M391.686,476.269H120.314V150.284h271.372V476.269z M418.797,114.552 c-15.666,0-309.652,0-325.594,0V79.818h118.561c9.867,0,17.866-7.999,17.866-17.866c0-34.849,52.739-34.849,52.739,0 c0,9.867,7.999,17.866,17.866,17.866h118.562V114.552z"></path> <path d="M165.128,217.314h111.955c9.867,0,17.866-7.999,17.866-17.866c0-9.867-7.999-17.866-17.866-17.866H165.128 c-9.867,0-17.866,7.999-17.866,17.866C147.263,209.315,155.262,217.314,165.128,217.314z"></path> <path d="M332.333,217.314h14.539c9.867,0,17.866-7.999,17.866-17.866c0-9.867-7.999-17.866-17.866-17.866h-14.539 c-9.867,0-17.866,7.999-17.866,17.866C314.467,209.315,322.465,217.314,332.333,217.314z"></path> <path d="M165.128,293.199h111.955c9.867,0,17.866-7.999,17.866-17.866s-7.999-17.866-17.866-17.866H165.128 c-9.867,0-17.866,7.999-17.866,17.866C147.263,285.202,155.262,293.199,165.128,293.199z"></path> <path d="M332.333,293.199h14.539c9.867,0,17.866-7.999,17.866-17.866s-7.999-17.866-17.866-17.866h-14.539 c-9.867,0-17.866,7.999-17.866,17.866C314.467,285.202,322.465,293.199,332.333,293.199z"></path> <path d="M165.128,369.084h111.955c9.867,0,17.866-7.999,17.866-17.866c0-9.867-7.999-17.866-17.866-17.866H165.128 c-9.867,0-17.866,7.999-17.866,17.866C147.263,361.085,155.262,369.084,165.128,369.084z"></path> <path d="M332.333,369.084h14.539c9.867,0,17.866-7.999,17.866-17.866c0-9.867-7.999-17.866-17.866-17.866h-14.539 c-9.867,0-17.866,7.999-17.866,17.866C314.467,361.085,322.465,369.084,332.333,369.084z"></path> <path d="M165.128,444.971h111.955c9.867,0,17.866-7.999,17.866-17.866c0-9.867-7.999-17.866-17.866-17.866H165.128 c-9.867,0-17.866,7.999-17.866,17.866C147.263,436.971,155.262,444.971,165.128,444.971z"></path> <path d="M332.333,444.971h14.539c9.867,0,17.866-7.999,17.866-17.866c0-9.867-7.999-17.866-17.866-17.866h-14.539 c-9.867,0-17.866,7.999-17.866,17.866C314.467,436.971,322.465,444.971,332.333,444.971z"></path> </svg>